HIERARCHY
ROOT Hips
{
	OFFSET -80.168388 91.772041 -268.984589
	CHANNELS 6 Xposition Yposition Zposition Zrotation Yrotation Xrotation 
	JOINT LeftUpLeg
	{
		OFFSET 0.103457 1.857818 10.548502
		CHANNELS 3 Zrotation Yrotation Xrotation
		JOINT LeftLeg
		{
			OFFSET 43.500000 -0.000011 -0.000004
			CHANNELS 3 Zrotation Yrotation Xrotation
			JOINT LeftFoot
			{
				OFFSET 42.372192 -0.000004 -0.000008
				CHANNELS 3 Zrotation Yrotation Xrotation
				JOINT LeftToe
				{
					OFFSET 17.300014 0.000006 0.000001
					CHANNELS 3 Zrotation Yrotation Xrotation
					End Site
					{
						OFFSET 0.000000 0.000000 0.000000
					}
				}
			}
		}
	}
	JOINT RightUpLeg
	{
		OFFSET 0.103457 1.857817 -10.548505
		CHANNELS 3 Zrotation Yrotation Xrotation
		JOINT RightLeg
		{
			OFFSET 43.500046 -0.000004 0.000011
			CHANNELS 3 Zrotation Yrotation Xrotation
			JOINT RightFoot
			{
				OFFSET 42.372257 0.000000 0.000015
				CHANNELS 3 Zrotation Yrotation Xrotation
				JOINT RightToe
				{
					OFFSET 17.300003 -0.000000 0.000002
					CHANNELS 3 Zrotation Yrotation Xrotation
					End Site
					{
						OFFSET 0.000000 0.000000 0.000000
					}
				}
			}
		}
	}
	JOINT Spine
	{
		OFFSET 6.901961 -2.603721 -0.000001
		CHANNELS 3 Zrotation Yrotation Xrotation
		JOINT Spine1
		{
			OFFSET 12.588108 0.000002 -0.000001
			CHANNELS 3 Zrotation Yrotation Xrotation
			JOINT Spine2
			{
				OFFSET 12.343199 -0.000020 0.000006
				CHANNELS 3 Zrotation Yrotation Xrotation
				JOINT Neck
				{
					OFFSET 25.832905 0.000017 0.000000
					CHANNELS 3 Zrotation Yrotation Xrotation
					JOINT Head
					{
						OFFSET 11.766604 -0.000006 0.000004
						CHANNELS 3 Zrotation Yrotation Xrotation
						End Site
						{
							OFFSET 0.000000 0.000000 0.000000
						}
					}
				}
				JOINT LeftShoulder
				{
					OFFSET 19.745903 -1.480350 6.000100
					CHANNELS 3 Zrotation Yrotation Xrotation
					JOINT LeftArm
					{
						OFFSET 11.284130 -0.000016 -0.000016
						CHANNELS 3 Zrotation Yrotation Xrotation
						JOINT LeftForeArm
						{
							OFFSET 33.000046 0.000004 0.000031
							CHANNELS 3 Zrotation Yrotation Xrotation
							JOINT LeftHand
							{
								OFFSET 25.199999 0.000027 0.000001
								CHANNELS 3 Zrotation Yrotation Xrotation
								End Site
								{
									OFFSET 0.000000 0.000000 0.000000
								}
							}
						}
					}
				}
				JOINT RightShoulder
				{
					OFFSET 19.746094 -1.480375 -6.000080
					CHANNELS 3 Zrotation Yrotation Xrotation
					JOINT RightArm
					{
						OFFSET 11.284131 -0.000016 -0.000017
						CHANNELS 3 Zrotation Yrotation Xrotation
						JOINT RightForeArm
						{
							OFFSET 33.000095 0.000009 0.000020
							CHANNELS 3 Zrotation Yrotation Xrotation
							JOINT RightHand
							{
								OFFSET 25.199789 0.000132 0.000423
								CHANNELS 3 Zrotation Yrotation Xrotation
								End Site
								{
									OFFSET 0.000000 0.000000 0.000000
								}
							}
						}
					}
				}
			}
		}
	}
}
MOTION
Frames: 14
Frame Time: 0.033333
234.751099 87.124298 508.677612 93.492927 0.431974 -88.219973 168.624844 12.829691 172.347803 -24.073459 -2.822062 -7.533918 83.025389 8.560580 15.738274 21.454553 0.003091 -0.000001 160.812965 9.277603 -166.850566 -85.255999 -2.655038 5.437721 68.023022 -3.115999 1.985223 21.454555 -0.003105 -0.000020 9.448272 -1.489317 0.380496 8.878249 -3.003402 0.645821 8.559707 -2.999307 0.663973 2.141496 -6.692582 -0.302689 -25.386995 12.665101 -7.124599 -177.936496 -75.769583 -3.598047 -22.512855 57.745554 -0.207281 -28.561449 -13.871525 1.130268 16.604921 1.981710 0.848529 -168.108577 73.982266 13.607771 -10.436994 -62.423606 -9.940799 -62.190949 16.949121 -2.347898 10.846738 2.302236 -32.516533 
235.269897 87.574409 504.950409 94.004686 0.907367 -83.426089 171.884279 12.382288 176.254234 -22.698283 -3.145501 -6.803091 83.445493 7.946807 15.428660 21.454550 0.003100 -0.000000 155.577462 9.158201 -169.020449 -85.530197 -3.236835 9.338160 68.434862 -5.392465 3.558638 21.454558 -0.003110 -0.000015 9.434858 -1.157923 0.100108 8.857573 -2.320132 0.111354 8.539184 -2.319283 0.125372 2.835441 -6.318542 -1.901208 -25.004211 13.544249 -9.033640 179.563583 -76.101107 -1.048878 -26.093587 58.115942 4.770228 -32.335745 -14.435974 1.240432 8.132632 -0.618547 22.819932 -164.739928 72.974035 17.068732 -6.747097 -62.846695 -14.024097 -54.436963 17.683390 -2.110295 11.123887 2.985494 -22.192828 
235.760696 87.743584 501.221710 94.305535 1.241744 -78.556895 174.548011 11.751489 179.869808 -22.509167 -3.399857 -6.188315 84.214026 7.343188 15.025059 21.454555 0.003084 0.000000 150.818828 8.741489 -171.030928 -84.063052 -3.332069 11.817917 69.949224 -8.711959 -0.979120 21.454558 -0.003111 -0.000011 9.510771 -0.935337 -0.232060 9.014202 -1.849784 -0.536308 8.695938 -1.852849 -0.525116 3.392037 -5.829810 -3.653604 -24.741541 14.709774 -11.237983 176.964478 -76.948331 1.586921 -30.908122 57.572211 7.017800 -38.161182 -14.631852 1.386790 4.168793 2.527733 42.545149 -163.168083 72.071924 18.691277 -4.278192 -62.803207 -16.918800 -46.025185 17.399832 -1.814417 11.363743 2.887560 -12.825332 
236.192993 87.864990 497.452515 94.759914 1.300103 -73.601313 176.895916 10.608001 -176.938673 -23.064289 -3.359418 -5.246694 84.807078 6.528109 14.509188 21.454550 0.003106 0.000001 147.011202 8.374301 -172.641624 -81.004835 -3.103788 13.088950 69.841560 -10.413148 -3.389073 21.454560 -0.003104 -0.000018 9.745442 -0.708947 -0.621119 9.486439 -1.364630 -1.298327 9.168336 -1.372308 -1.290058 3.434092 -5.499905 -5.451340 -24.619878 16.090385 -13.653815 173.565762 -78.165634 5.019748 -36.690274 56.214356 7.275335 -44.918647 -14.610664 1.568458 5.749078 8.180950 57.071657 -162.849181 71.388994 19.026313 -3.017292 -62.428598 -18.976212 -38.256016 16.150699 -1.515465 11.579472 1.487044 -6.727454 
236.449402 87.789970 493.686188 94.879087 1.171451 -69.179011 178.837343 9.484104 -174.539624 -24.408875 -3.180946 -4.037000 85.108740 5.591000 14.033361 21.454550 0.003099 0.000001 144.014689 7.683504 -173.316009 -76.481829 -2.466961 13.080500 71.239023 -9.321058 0.007333 21.454562 -0.003103 -0.000016 10.159109 -0.576009 -0.980691 10.315150 -1.062323 -2.008883 9.997201 -1.074299 -2.002424 2.827143 -5.314946 -7.187263 -24.416226 17.470961 -16.029213 168.495303 -79.588274 10.129273 -42.559472 54.376885 6.004727 -51.398871 -14.519411 1.763794 9.510482 11.650746 65.182415 -163.032709 70.917793 18.842228 -2.169407 -62.043717 -21.100493 -32.479213 14.658305 -1.284388 11.457974 -0.768486 -5.844455 
236.428101 87.724922 489.961212 95.065646 1.019453 -66.104920 -179.275595 7.914797 -173.232367 -25.315521 -3.454835 -2.991203 84.789647 4.888379 13.713153 21.454551 0.003096 0.000001 141.652372 6.499205 -173.477352 -69.579356 -1.293300 11.138752 72.086144 -8.263138 -0.998605 21.454558 -0.003109 -0.000020 10.655579 -0.502087 -1.161748 11.307850 -0.888179 -2.367054 10.989999 -0.902323 -2.361645 1.826066 -5.230478 -8.632916 -24.110120 18.666282 -18.015619 162.458139 -80.904738 16.198612 -47.347028 52.536534 3.413343 -57.113974 -14.211278 1.939539 11.588856 11.618084 67.250507 -163.329795 70.642816 18.538672 -1.120206 -61.825308 -23.960481 -29.446325 13.725035 -1.163422 11.213820 -3.417183 -10.787303 
236.123901 87.552719 486.334198 95.421486 1.246420 -64.697382 -177.964909 6.279800 -173.230741 -26.235501 -4.077560 -1.988889 83.911333 4.323470 13.549882 21.454553 0.003099 0.000001 139.513553 4.454803 -173.028376 -60.304157 -0.201479 8.762023 71.858194 -6.289023 0.049616 21.454560 -0.003111 -0.000020 11.069255 -0.498242 -1.185945 12.135203 -0.869259 -2.417665 11.817373 -0.883712 -2.412361 0.869502 -5.265691 -9.500298 -23.889439 19.565811 -19.298194 158.009856 -81.724122 20.661017 -50.259144 51.084785 0.161279 -61.882142 -13.699551 2.080572 10.345810 9.193742 64.924636 -163.543224 70.600339 18.319266 0.103783 -61.666295 -27.482981 -28.837612 13.489611 -1.136885 11.172251 -6.220880 -19.350035 
235.505493 87.303596 482.739807 96.145896 1.896820 -64.465040 -177.260785 4.935193 -174.031034 -27.330976 -4.390722 -1.261273 82.636908 3.988209 13.420266 21.454551 0.003099 -0.000000 138.202690 1.567778 -170.800191 -48.199409 1.035136 5.448504 70.787787 -4.533083 -1.661019 21.454558 -0.003106 -0.000018 11.298688 -0.476855 -1.193724 12.593605 -0.820834 -2.432315 12.275764 -0.835360 -2.427316 0.237288 -5.317394 -9.681821 -23.795884 20.011689 -19.691369 156.793864 -81.908831 21.880656 -51.408269 50.322723 -2.992235 -65.307933 -13.246439 2.181731 6.500032 5.522269 59.672112 -163.574534 70.776906 18.285279 0.866209 -61.317395 -30.905711 -29.604307 13.561901 -1.155929 11.524220 -8.881189 -27.154920 
234.496399 86.612938 478.905304 96.667155 2.742913 -64.554078 -176.893785 4.356205 -174.882226 -29.451298 -4.195585 -0.845470 81.267250 3.568699 12.065445 21.454553 0.003086 0.000005 138.480870 -1.123793 -166.006641 -35.748831 1.954417 2.983035 71.152068 -0.936232 4.030702 21.454560 -0.003104 -0.000018 11.349123 -0.434189 -1.356193 12.694292 -0.716820 -2.751848 12.376561 -0.733294 -2.747468 0.043488 -5.245482 -9.399753 -23.664447 19.937433 -19.333532 157.463618 -81.667322 21.215841 -51.587930 50.435797 -5.622213 -66.833476 -13.111548 2.232752 1.857502 0.948046 52.342349 -163.489498 71.090521 18.370009 1.371711 -60.642702 -33.950405 -30.757199 13.647710 -1.183908 12.237393 -10.937726 -30.939883 
233.122498 85.802368 474.867493 97.316365 3.273771 -64.545411 -176.641369 3.773896 -175.255469 -32.334962 -4.204428 -0.748114 78.101260 3.636703 11.185061 21.454557 0.003097 -0.000004 139.704211 -4.482496 -159.586865 -26.311475 2.546018 2.441094 70.577567 0.785920 8.072193 21.454558 -0.003105 -0.000021 11.240311 -0.258138 -1.571377 12.472623 -0.345248 -3.161348 12.155038 -0.364182 -3.159206 0.424302 -5.222221 -9.100806 -23.402489 19.724096 -18.857850 158.400297 -81.351234 20.284327 -51.907621 51.344540 -7.804496 -66.160259 -13.390733 2.225232 -1.563513 -3.827094 44.052671 -163.237109 71.430781 18.626600 2.339016 -59.924405 -36.230312 -31.920336 13.745953 -1.213859 12.833570 -11.965598 -30.805256 
231.444397 84.488853 470.485687 97.224294 3.177667 -64.300173 -176.451694 2.902996 -176.265503 -37.490587 -4.730868 0.983687 74.131731 2.428340 9.755274 21.454555 0.003087 0.000000 141.158768 -7.288895 -156.924156 -23.796680 1.928109 3.244208 71.310324 -0.148973 7.158306 21.454560 -0.003111 -0.000020 11.079021 -0.077232 -1.724641 12.144835 0.027095 -3.447747 11.827364 0.006424 -3.447841 1.408990 -5.659606 -9.180136 -23.214450 19.924106 -19.024597 159.002173 -81.112786 19.687018 -53.194295 52.571713 -9.910896 -63.582866 -14.020120 2.167574 -1.978178 -6.942760 36.930884 -162.582094 71.579857 19.299079 4.911893 -59.310303 -38.003295 -33.113799 13.847469 -1.245653 12.777421 -11.831348 -28.622198 
229.703293 82.785011 465.909485 96.985087 1.879025 -64.201306 -176.560827 0.720991 -179.127052 -45.825938 -4.837068 4.352189 69.582149 -0.960075 5.781838 21.454562 0.003093 -0.000001 141.452863 -9.879112 -160.486510 -28.250627 1.817033 4.853566 68.746141 -7.692890 -11.782114 21.454558 -0.003113 -0.000017 11.020516 0.219647 -1.582351 12.020110 0.602565 -3.133247 11.702510 0.583785 -3.136820 2.811615 -6.640996 -9.685794 -23.526115 20.455209 -19.946582 158.909938 -80.786057 19.795741 -55.584066 53.498959 -12.519802 -59.737401 -14.883407 2.080740 0.603543 -6.993169 33.920027 -161.886002 71.297107 20.018673 7.800998 -58.583188 -38.814206 -33.887205 13.767496 -1.257370 12.047422 -10.760654 -24.922380 
227.988998 81.669388 461.263885 97.159653 -0.419630 -64.754387 -177.498312 -2.970595 177.659627 -56.627121 -3.211976 9.584754 67.185627 -8.616227 -4.371218 21.454548 0.003092 0.000004 140.747564 -12.343305 -165.555753 -38.280202 1.999866 8.715883 75.300746 -9.524443 -11.707147 21.454558 -0.003106 -0.000017 11.129772 0.672546 -1.160408 12.233329 1.464041 -2.243234 11.915387 1.450599 -2.252014 4.309619 -7.731928 -10.314148 -24.315086 20.669730 -20.958859 158.987666 -80.148028 19.747597 -58.209877 53.892860 -15.572831 -54.942718 -15.881414 1.975399 3.801395 -5.408946 36.591092 -162.143992 70.712771 19.759816 7.598290 -57.848697 -37.309488 -33.442273 13.426076 -1.225522 11.372362 -8.691710 -19.439934 
226.188400 80.813057 456.631592 96.719638 -2.275575 -65.658875 -179.782860 -5.461901 176.241256 -66.797092 -1.197449 11.850886 62.419337 -10.388672 -3.724129 21.454555 0.003090 0.000011 142.313248 -13.072404 -167.036975 -45.450582 2.974005 9.397157 81.311654 -9.055706 -10.779157 21.454558 -0.003104 -0.000017 11.257138 0.965853 -0.846584 12.489360 2.017427 -1.584025 12.171179 2.007959 -1.596184 5.535647 -8.365641 -10.794854 -24.764978 20.298506 -21.411444 160.609986 -79.345508 18.140687 -59.870467 53.978818 -17.990003 -49.245278 -16.843286 1.848783 5.203793 -5.258607 42.540628 -163.526135 70.335382 18.339405 4.088290 -57.443305 -34.087483 -32.253837 13.151292 -1.182389 11.473990 -5.321843 -14.332324 
